<svg width="99" height="112" viewBox="0 0 99 112" fill="none" xmlns="http://www.w3.org/2000/svg">
<g clip-path="url(#clip0_211_853)">
<path d="M30.9375 112V74.9C27.225 72.8 24.75 67.9 24.75 63V35C24.75 30.1 27.225 25.9 30.9375 23.1V21C30.9375 13.3 25.3687 7 18.5625 7C11.7562 7 6.1875 13.3 6.1875 21C6.1875 28.7 11.7562 35 18.5625 35H6.1875C3.09375 35 0 38.5 0 42V70C0 73.5 3.09375 77 6.1875 77V112H30.9375ZM92.8125 35H80.4375C87.2438 35 92.8125 28.7 92.8125 21C92.8125 13.3 87.2438 7 80.4375 7C73.6312 7 68.0625 13.3 68.0625 21V23.1C71.775 25.9 74.25 30.1 74.25 35V63C74.25 67.9 71.775 72.8 68.0625 74.9V112H92.8125V77C95.9062 77 99 73.5 99 70V42C99 38.5 95.9062 35 92.8125 35ZM61.875 14C61.9123 15.8644 61.6199 17.7184 61.0151 19.4532C60.4103 21.188 59.5052 22.7686 58.3531 24.1022C57.2009 25.4358 55.8248 26.4956 54.3056 27.2193C52.7864 27.943 51.1546 28.316 49.5063 28.3165C47.8579 28.317 46.226 27.9449 44.7065 27.222C43.1869 26.4992 41.8104 25.4402 40.6576 24.1072C39.5048 22.7742 38.5991 21.1941 37.9935 19.4597C37.3879 17.7252 37.0947 15.8714 37.1312 14.007C37.2027 10.3491 38.5371 6.86816 40.8489 4.30941C43.1606 1.75066 46.2659 0.317428 49.5001 0.316513C52.7342 0.315599 55.8401 1.74708 58.153 4.30452C60.4659 6.86196 61.8019 10.3421 61.875 14Z" fill="white"/>
<path d="M61.875 28H37.125C34.0312 28 30.9375 31.5 30.9375 35V63C30.9375 66.5 34.0312 70 37.125 70V112H61.875V70C64.9688 70 68.0625 66.5 68.0625 63V35C68.0625 31.5 64.9688 28 61.875 28Z" fill="white"/>
</g>
<defs>
<clipPath id="clip0_211_853">
<rect width="99" height="112" fill="white"/>
</clipPath>
</defs>
</svg>
