<svg width="156" height="161" viewBox="0 0 156 161" fill="none" xmlns="http://www.w3.org/2000/svg">
<path d="M136.5 120.75V46.9583L117 60.375L78 67.0833L32.5 60.375L19.5 46.9583V120.75L58.5 77.1458L84.5 100.625L107.25 87.2083L126.75 117.396L136.5 120.75Z" fill="white"/>
<path d="M19.5 114.042L39.26 90.2539C47.0665 80.8488 50.973 76.1463 55.8155 75.4285C57.382 75.1937 58.9875 75.2608 60.5345 75.623C65.299 76.7366 68.835 81.7477 75.894 91.7633L77.909 94.6345C79.547 96.9488 80.3595 98.1094 81.2695 98.7534C82.2744 99.4714 83.4551 99.8825 84.6761 99.9395C85.8971 99.9964 87.1089 99.6969 88.1725 99.0754C89.1345 98.5119 90.0445 97.4385 91.8775 95.2852C95.6605 90.8107 97.5585 88.5768 99.5345 87.4431C101.72 86.1891 104.209 85.6121 106.703 85.781C109.198 85.95 111.593 86.8578 113.6 88.3957C115.42 89.7843 117.013 92.2597 120.204 97.197L133.25 117.396" stroke="white" stroke-width="2"/>
<path d="M45.5 63.7292V30.1875M110.5 63.7292V30.1875M19.5 114.042V46.9583M136.5 46.9583V114.042M110.63 30.2546C121.043 32.6629 128.927 36.1579 133.126 40.2232C137.325 44.2884 137.611 48.7159 133.945 52.8415C130.273 56.9672 122.85 60.583 112.755 63.1455C102.661 65.7081 90.441 67.09 77.896 67.0833C65.351 67.0766 53.144 65.6746 43.082 63.1053C33.0135 60.5293 25.623 56.9068 21.996 52.7745C18.369 48.6421 18.7005 44.2213 22.9385 40.1628C27.183 36.0975 35.1065 32.6092 45.5455 30.2143" stroke="white" stroke-width="2" stroke-linecap="round"/>
<path d="M136.5 114.042C136.5 119.381 130.338 124.5 119.366 128.27C108.394 132.047 93.5155 134.167 78 134.167C62.4845 134.167 47.606 132.047 36.634 128.27C25.662 124.507 19.5 119.381 19.5 114.042" stroke="white" stroke-width="2"/>
</svg>
