<svg width="98" height="163" viewBox="0 0 98 163" fill="none" xmlns="http://www.w3.org/2000/svg">
<path fill-rule="evenodd" clip-rule="evenodd" d="M91.9863 4.04082C91.5054 4.15363 90.7548 4.53062 89.7881 5.46106L5.6216 86.4398C5.55998 86.4991 5.49462 86.5544 5.42593 86.6053C5.01529 86.9097 4.57242 87.4952 4.28545 88.3784C4.00136 89.2527 3.92288 90.2663 4.079 91.2386C4.23604 92.2166 4.60439 92.9994 5.03505 93.5037C5.45819 93.9992 5.85304 94.1375 6.1143 94.1491C6.18054 94.1521 6.24659 94.1584 6.31221 94.1679L54.2764 101.126C54.9517 101.224 55.5305 101.659 55.8116 102.281L53.9893 103.105C55.8116 102.281 55.8115 102.281 55.8116 102.281L55.8127 102.283L56.7868 104.436C57.4092 105.811 58.301 107.781 59.3786 110.159C61.5339 114.914 64.4324 121.303 67.4056 127.835C73.3727 140.945 79.5855 154.512 80.7498 156.753C80.7645 156.781 80.7785 156.81 80.7919 156.839C81.2061 157.739 81.7461 158.257 82.2051 158.484C82.6201 158.688 83.0229 158.69 83.434 158.494C83.8896 158.277 84.4301 157.77 84.8494 156.879C85.2651 155.996 85.4839 154.887 85.4291 153.738C85.4258 153.667 85.4262 153.596 85.4304 153.525C85.9175 145.319 93.5529 16.6599 93.9702 9.57575C94.0643 7.96487 93.9282 6.69013 93.6644 5.75945C93.3961 4.81302 93.037 4.35673 92.7928 4.16755C92.6123 4.0278 92.3949 3.94498 91.9863 4.04082ZM52.6185 104.927L5.82396 98.1389C4.29521 98.0362 2.96526 97.2396 1.9932 96.1012C1.005 94.944 0.38176 93.4432 0.129593 91.8728C-0.123484 90.2967 -0.00569856 88.6408 0.481243 87.1422C0.950282 85.6988 1.77175 84.38 2.93144 83.4773L87.0143 2.5791C87.0142 2.57918 87.0144 2.57901 87.0143 2.5791C88.2852 1.35592 89.651 0.480048 91.0728 0.146533C92.567 -0.203974 94.0388 0.0732014 95.242 1.00511C96.3815 1.88759 97.1006 3.21461 97.5127 4.66845C97.9294 6.13804 98.0761 7.88054 97.9634 9.80916C97.5482 16.857 89.97 144.554 89.4294 153.66C89.4937 155.366 89.171 157.09 88.4688 158.582C87.7548 160.1 86.6327 161.4 85.1563 162.104C83.6355 162.83 81.9461 162.816 80.4358 162.071C78.9839 161.355 77.8816 160.062 77.1788 158.556C75.9013 156.078 69.659 142.442 63.7649 129.492C60.7906 122.957 57.8911 116.567 55.7353 111.81C54.6574 109.431 53.7653 107.461 53.1427 106.086L52.6185 104.927Z" fill="white"/>
</svg>
